<svg width="640" height="212" viewBox="0 0 640 212" fill="none" xmlns="http://www.w3.org/2000/svg">
<path d="M 441.13 3.39 C 433.9 5.87, 423.72 10.62, 418.27 14.08 C 404.73 22.64, 395.64 31.84, 373.99 58.89 C 372 61.37, 369.84 64.1, 369.18 64.96 C 366.9 67.94, 366.1 68.07, 362.75 66 C 359.32 63.88, 354.51 61.66, 351.2 60.66 C 339.29 57.07, 325.03 60.59, 321.7 67.94 C 320.8 69.94, 321.39 70.39, 325.58 70.9 C 345.21 73.31, 361.3 89.11, 363.25 107.88 C 363.84 113.59, 364.34 113.17, 370.6 101.81 C 373.45 96.63, 380.06 85.45, 382.68 81.38 C 383.56 80, 385.44 77.02, 386.86 74.74 C 388.27 72.47, 389.99 69.83, 390.67 68.87 C 391.36 67.91, 394.37 63.52, 397.37 59.13 C 411.24 38.77, 428.54 18.54, 439.63 9.73 C 441.27 8.42, 443.44 6.7, 444.44 5.92 C 448.29 2.86, 446.55 1.54, 441.13 3.39 M 0 95.72 C 0 134.05, 0.05 140.23, 0.36 140.49 C 0.56 140.65, 1.07 141.65, 1.51 142.7 C 7.01 156.05, 19.46 163.24, 39.25 164.52 C 45.7 164.94, 45.14 166.09, 45.06 152.53 C 44.96 138.08, 45.57 139.25, 38.18 139.25 C 31.38 139.25, 29.36 138.7, 27.19 136.26 C 25.85 134.75, 24.33 131.52, 24.01 129.5 C 23.65 127.21, 23.66 105.46, 24.03 104.66 C 24.53 103.55, 25.01 103.5, 34.45 103.5 C 44.49 103.5, 45.1 103.42, 45.65 102.12 C 46.29 100.57, 46.16 78.66, 45.5 78 C 45.02 77.52, 44.67 77.5, 35.03 77.5 C 25.58 77.5, 25.02 77.47, 24.47 77.02 C 23.88 76.54, 23.88 76.54, 23.83 64.46 C 23.78 52.38, 23.78 52.38, 23.13 51.81 C 22.47 51.25, 22.47 51.25, 11.24 51.25 L 0 51.25 0 95.72 M 89.5 77.5 C 53.99 79.84, 36.34 121.15, 59 148.88 C 70.41 162.83, 91.62 168.15, 108.82 161.37 C 110.25 160.81, 111.01 160.91, 112.19 161.85 C 113.25 162.69, 113.25 162.69, 119.44 162.88 C 132.34 163.27, 135.88 162.94, 136.56 161.25 C 137.52 158.86, 136.94 116.8, 135.87 111.63 C 131.46 90.29, 112.07 76.02, 89.5 77.5 M 176.13 77.5 C 161.59 79.07, 149.44 88.54, 145.18 101.63 C 142.87 108.7, 142.88 108.52, 142.88 136.25 C 142.88 161.88, 142.87 161.71, 144.06 162.5 C 145.22 163.27, 166.34 163.18, 167.12 162.4 C 167.88 161.64, 167.8 164.4, 167.86 135.75 C 167.92 111.45, 167.82 112.88, 169.63 109.04 C 173.78 100.24, 186.74 100.49, 190.22 109.44 C 190.88 111.13, 190.88 111.13, 191 136.38 C 191.13 162.48, 191.12 162.25, 192.15 162.72 C 193.38 163.28, 215.57 163.1, 216.28 162.52 C 216.88 162.04, 216.88 162.04, 217 136.71 C 217.13 111.39, 217.13 111.37, 217.67 109.93 C 220.62 102.14, 231.02 99.98, 236.58 106 C 240.18 109.9, 240.05 108.82, 240.23 137.8 C 240.37 160.57, 240.4 162.01, 240.82 162.43 C 241.31 162.92, 262.02 163.26, 263.81 162.81 C 265.62 162.35, 265.53 163.85, 265.42 136.13 C 265.31 109.3, 265.39 111.07, 263.87 104.88 C 257.75 79.99, 229.11 69.47, 207 83.99 C 204.26 85.79, 203.8 85.84, 201.98 84.53 C 194.03 78.85, 185.4 76.5, 176.13 77.5 M 310 77.66 C 293.56 80.21, 282.6 87.52, 275.78 100.5 C 272.63 106.51, 270.07 117.24, 270.61 122.19 C 270.68 122.84, 270.87 124.61, 271.01 126.13 C 271.68 132.8, 275.07 141.27, 279.43 147.11 C 290.95 162.53, 309.98 167.95, 330.32 161.61 C 332.46 160.94, 332.65 160.97, 334.75 162.31 C 336.12 163.18, 356.91 163.19, 357.79 162.32 C 358.66 161.45, 358.81 156.99, 358.63 136.04 C 358.43 111.45, 358.3 110.43, 354.15 101.9 C 348.32 89.9, 336.65 81.05, 322.65 78.02 C 320.4 77.53, 312.33 77.3, 310 77.66 M 90.5 102.65 C 80.37 104.57, 74.41 111.41, 74.4 121.13 C 74.38 136.27, 91.8 144.79, 104.15 135.68 C 115.02 127.67, 113.16 110.53, 100.75 104.24 C 98.42 103.06, 92.88 102.2, 90.5 102.65 M 312.32 102.75 C 300.62 104.37, 293.36 116.07, 297.22 127.11 C 302.08 141.01, 321.11 143.82, 329.63 131.88 C 338.95 118.81, 328.11 100.57, 312.32 102.75" fill="#BF1814" fill-rule="evenodd"/>
<path d="M 415.13 77.5 C 397.83 79.14, 383.11 90.55, 377.58 106.63 C 375.08 113.88, 374.96 116.25, 375.05 157.29 C 375.12 187.53, 375.14 188.46, 375.6 188.97 C 376.31 189.76, 398.57 189.81, 399.53 189.02 C 400.13 188.54, 400.13 188.54, 400.25 175.25 C 400.39 159.89, 400.27 160.52, 402.89 161.61 C 407.9 163.71, 418.83 165.02, 424.03 164.15 C 425.18 163.96, 426.69 163.72, 427.37 163.62 C 447.01 160.9, 462.99 141.82, 463 121.12 C 463 95.24, 440.87 75.07, 415.13 77.5 M 568.72 77.44 C 560.91 77.5, 560.55 77.53, 560.11 78.01 C 559.57 78.61, 559.27 120.7, 559.77 126.12 C 561.39 143.8, 575.19 159.28, 592.33 162.63 C 599.3 163.99, 604.43 163.72, 613.97 161.47 C 616.19 160.94, 616.33 161.28, 616.19 166.75 C 615.94 176.31, 611.64 182.11, 602.85 184.72 C 599.89 185.6, 600.13 184.42, 600.13 198.39 C 600.13 212.6, 599.9 211.52, 602.8 211.02 C 619.13 208.2, 631.64 199.37, 637.99 186.21 C 638.7 184.74, 639.44 183.48, 639.64 183.4 C 639.95 183.28, 640 176.14, 640 130.38 L 640 77.5 629.44 77.45 C 616.81 77.39, 617.27 77.37, 616.63 78.01 C 616.13 78.51, 616.13 78.73, 616.13 101.32 C 616.13 126.79, 616.2 125.78, 613.83 130.3 C 608.01 141.38, 591.9 140.08, 586.47 128.09 C 584.85 124.53, 584.92 125.58, 584.77 100.82 C 584.66 83.15, 584.56 78.21, 584.31 77.96 C 583.93 77.58, 581.07 77.26, 578.63 77.32 C 577.66 77.35, 573.21 77.4, 568.72 77.44 M 503.13 78.12 C 472.87 84, 457.89 117.15, 473.57 143.5 C 479.66 153.73, 491.03 161.62, 502.42 163.52 C 503.36 163.67, 504.95 163.96, 505.96 164.15 C 510.58 165.03, 518.48 164.31, 524.47 162.47 C 529.11 161.04, 529.53 161.01, 530.63 161.97 C 531.87 163.06, 531.48 163.03, 543.55 162.95 C 555.83 162.87, 555.13 162.98, 555.52 160.96 C 555.81 159.44, 555.8 123.6, 555.5 119.48 C 554 98.65, 541.74 83.75, 521.75 78.44 C 517.65 77.35, 507.92 77.18, 503.13 78.12 M 414.38 103.24 C 404.6 105.84, 398.72 115.85, 401.24 125.6 C 404.71 139.08, 421.82 143.98, 431.67 134.32 C 445.28 120.98, 432.7 98.37, 414.38 103.24 M 506.25 103.4 C 494.4 106.88, 489.11 121.03, 495.91 131.06 C 505.94 145.86, 528.85 139.72, 529.68 122 C 530.27 109.25, 518.41 99.83, 506.25 103.4" fill="#F4A837" fill-rule="evenodd"/>
</svg>
