<svg width="25" height="24" viewBox="0 0 25 24" xmlns="http://www.w3.org/2000/svg">
<path fill-rule="evenodd" clip-rule="evenodd" d="M12.4416 0.75C18.6921 0.75 23.7591 5.81705 23.7591 12.0675C23.7591 15.2681 22.4303 18.1587 20.2948 20.217C20.7306 20.7883 21.0619 21.2592 21.3113 21.6361C21.5446 21.9887 21.5545 22.3924 21.3811 22.7128C21.2079 23.0326 20.8647 23.2461 20.4438 23.2495C18.9119 23.2618 17.1862 23.0796 15.7825 22.8824C14.9232 22.7616 14.2959 22.0141 14.3262 21.1469C14.376 19.7227 14.4973 17.9804 14.7786 16.4681C14.8547 16.059 15.1199 15.7602 15.461 15.6454C15.8031 15.5303 16.1943 15.6096 16.4984 15.8973C16.8729 16.2515 17.3525 16.7363 17.9435 17.3905C19.2769 16.0126 20.097 14.136 20.097 12.0675C20.097 7.8396 16.6695 4.41216 12.4416 4.41216C8.21361 4.41216 4.78618 7.8396 4.78618 12.0675C4.78618 14.3179 5.75676 16.3411 7.30296 17.7421C7.88701 18.2713 8.10631 19.1723 7.64971 19.8724L7.28781 20.4274C6.83966 21.1146 5.89066 21.3373 5.22884 20.7894C2.72186 18.7139 1.12402 15.5772 1.12402 12.0675C1.12402 5.81705 6.19106 0.75 12.4416 0.75ZM13.6245 7.5C13.6245 6.80965 13.0649 6.25 12.3745 6.25C11.6842 6.25 11.1245 6.80965 11.1245 7.5V11.4823L8.49061 14.1161C8.00246 14.6042 8.00246 15.3958 8.49061 15.8839C8.97876 16.372 9.77026 16.372 10.2584 15.8839L13.2584 12.8839C13.4928 12.6494 13.6245 12.3315 13.6245 12V7.5Z"/>
</svg>
